<svg xmlns="http://www.w3.org/2000/svg" viewBox="0 0 420 560">
  <rect width="420" height="560" fill="#07090c"/>
  <g fill="#020304">
    <path d="M211 55c54 0 95 42 95 97 0 38-18 68-47 85 56 19 102 71 116 146l21 112H24l21-112c14-75 60-127 116-146-29-17-47-47-47-85 0-55 41-97 97-97z"/>
    <path d="M103 292 62 417l66 34 33-118zM318 292l41 125-66 34-33-118z"/>
  </g>
  <g opacity=".18" fill="#111820">
    <path d="M121 152c8-54 41-81 90-81s82 27 90 81c-38-18-65-26-90-26s-52 8-90 26z"/>
    <path d="M98 388h226l15 82H83z"/>
  </g>
</svg>
